<svg id="Layer_1" data-name="Layer 1" xmlns="http://www.w3.org/2000/svg" viewBox="0 0 122.88 122.88"><defs><style>.cls-1{fill-rule:evenodd;}</style></defs><title>rupee-sign</title><path class="cls-1" d="M61.44,0A61.44,61.44,0,1,1,0,61.44,61.44,61.44,0,0,1,61.44,0ZM81.93,32.17l-2.2,8.55H71.54a16.64,16.64,0,0,1,2.18,6.2h8.12L79.73,55.3H73.54A19,19,0,0,1,72.45,59a14.81,14.81,0,0,1-4.63,6.14,25.37,25.37,0,0,1-8.1,4.09l-.53.23L76.05,90.16v.55h-15L42,68.21l.06-7.91h9.4a9,9,0,0,0,4.91-1.22,7.6,7.6,0,0,0,2.88-3.18q.15-.3.27-.6H41l2.11-8.37h16a8.47,8.47,0,0,0-.83-1.16c-1.33-1.55-3.57-2.33-6.76-2.33H41l2.49-11.27H81.93ZM61.44,10.48a51,51,0,1,1-51,51,51,51,0,0,1,51-51Z"/></svg>